<mxfile host="app.diagrams.net" modified="2020-12-17T13:26:21.120Z" agent="5.0 (Windows NT 10.0; Win64; x64) AppleWebKit/537.36 (KHTML, like Gecko) Chrome/87.0.4280.88 Safari/537.36" etag="pr08ja18PDfJLs7LYy7-" version="14.0.3" type="github">
  <diagram id="tTLa9AdW2Mtm0XmmkCfz" name="Page-1">
    <mxGraphModel dx="1422" dy="794" grid="1" gridSize="10" guides="1" tooltips="1" connect="1" arrows="1" fold="1" page="1" pageScale="1" pageWidth="1169" pageHeight="827" math="0" shadow="0">
      <root>
        <mxCell id="0" />
        <mxCell id="1" parent="0" />
        <mxCell id="jubV7-twtPXMku64c-Cl-31" value="Yes" style="edgeStyle=orthogonalEdgeStyle;rounded=0;orthogonalLoop=1;jettySize=auto;html=1;exitX=1;exitY=0.5;exitDx=0;exitDy=0;exitPerimeter=0;entryX=0;entryY=0.5;entryDx=0;entryDy=0;strokeWidth=2;fontSize=12;" parent="1" source="jubV7-twtPXMku64c-Cl-3" target="jubV7-twtPXMku64c-Cl-8" edge="1">
          <mxGeometry x="-0.6667" relative="1" as="geometry">
            <mxPoint as="offset" />
          </mxGeometry>
        </mxCell>
        <mxCell id="jubV7-twtPXMku64c-Cl-3" value="Last special survey &lt;br&gt;date?" style="strokeWidth=2;html=1;shape=mxgraph.flowchart.decision;whiteSpace=wrap;fillColor=#f8cecc;strokeColor=#b85450;" parent="1" vertex="1">
          <mxGeometry x="460" y="140" width="100" height="100" as="geometry" />
        </mxCell>
        <mxCell id="jubV7-twtPXMku64c-Cl-4" value="Within the last 4 years" style="strokeWidth=2;html=1;shape=mxgraph.flowchart.annotation_1;align=left;pointerEvents=1;" parent="1" vertex="1">
          <mxGeometry x="470" y="110" width="20" height="30" as="geometry" />
        </mxCell>
        <mxCell id="jubV7-twtPXMku64c-Cl-20" style="edgeStyle=orthogonalEdgeStyle;rounded=0;orthogonalLoop=1;jettySize=auto;html=1;exitX=1;exitY=0.5;exitDx=0;exitDy=0;exitPerimeter=0;strokeWidth=2;" parent="1" source="jubV7-twtPXMku64c-Cl-5" target="jubV7-twtPXMku64c-Cl-3" edge="1">
          <mxGeometry relative="1" as="geometry" />
        </mxCell>
        <mxCell id="jubV7-twtPXMku64c-Cl-21" value="No" style="edgeLabel;html=1;align=center;verticalAlign=middle;resizable=0;points=[];fontSize=12;" parent="jubV7-twtPXMku64c-Cl-20" vertex="1" connectable="0">
          <mxGeometry x="-0.3333" y="1" relative="1" as="geometry">
            <mxPoint x="-57" y="1" as="offset" />
          </mxGeometry>
        </mxCell>
        <mxCell id="jubV7-twtPXMku64c-Cl-25" value="Yes" style="edgeStyle=orthogonalEdgeStyle;rounded=0;orthogonalLoop=1;jettySize=auto;html=1;exitX=0.5;exitY=1;exitDx=0;exitDy=0;exitPerimeter=0;entryX=0.5;entryY=0;entryDx=0;entryDy=0;entryPerimeter=0;strokeWidth=2;fontSize=12;" parent="1" source="jubV7-twtPXMku64c-Cl-5" target="jubV7-twtPXMku64c-Cl-22" edge="1">
          <mxGeometry x="-0.6154" relative="1" as="geometry">
            <Array as="points">
              <mxPoint x="180" y="250" />
              <mxPoint x="180" y="250" />
            </Array>
            <mxPoint as="offset" />
          </mxGeometry>
        </mxCell>
        <mxCell id="jubV7-twtPXMku64c-Cl-5" value="Is there &lt;br&gt;a NSSD?" style="strokeWidth=2;html=1;shape=mxgraph.flowchart.decision;whiteSpace=wrap;fillColor=#f8cecc;strokeColor=#b85450;" parent="1" vertex="1">
          <mxGeometry x="130" y="140" width="100" height="100" as="geometry" />
        </mxCell>
        <mxCell id="jubV7-twtPXMku64c-Cl-6" value="End" style="strokeWidth=2;html=1;shape=mxgraph.flowchart.start_1;whiteSpace=wrap;fillColor=#dae8fc;strokeColor=#6c8ebf;" parent="1" vertex="1">
          <mxGeometry x="1030" y="650" width="100" height="60" as="geometry" />
        </mxCell>
        <mxCell id="jubV7-twtPXMku64c-Cl-24" style="edgeStyle=orthogonalEdgeStyle;rounded=0;orthogonalLoop=1;jettySize=auto;html=1;exitX=0.5;exitY=1;exitDx=0;exitDy=0;exitPerimeter=0;strokeWidth=2;fontSize=12;" parent="1" source="jubV7-twtPXMku64c-Cl-7" target="jubV7-twtPXMku64c-Cl-5" edge="1">
          <mxGeometry relative="1" as="geometry" />
        </mxCell>
        <mxCell id="jubV7-twtPXMku64c-Cl-7" value="Start" style="strokeWidth=2;html=1;shape=mxgraph.flowchart.start_1;whiteSpace=wrap;fillColor=#dae8fc;strokeColor=#6c8ebf;" parent="1" vertex="1">
          <mxGeometry x="130" y="30" width="100" height="60" as="geometry" />
        </mxCell>
        <mxCell id="jubV7-twtPXMku64c-Cl-32" style="edgeStyle=orthogonalEdgeStyle;rounded=0;orthogonalLoop=1;jettySize=auto;html=1;exitX=1;exitY=0.5;exitDx=0;exitDy=0;entryX=0;entryY=0.5;entryDx=0;entryDy=0;entryPerimeter=0;strokeWidth=2;fontSize=12;" parent="1" source="jubV7-twtPXMku64c-Cl-8" target="jubV7-twtPXMku64c-Cl-12" edge="1">
          <mxGeometry relative="1" as="geometry" />
        </mxCell>
        <mxCell id="jubV7-twtPXMku64c-Cl-8" value="Derive Next Special Survey Date" style="rounded=1;whiteSpace=wrap;html=1;absoluteArcSize=1;arcSize=14;strokeWidth=2;fillColor=#d5e8d4;strokeColor=#82b366;" parent="1" vertex="1">
          <mxGeometry x="680" y="140" width="100" height="100" as="geometry" />
        </mxCell>
        <mxCell id="jubV7-twtPXMku64c-Cl-9" value="Add 5 years to the &lt;br&gt;Last Special Survey Date" style="strokeWidth=2;html=1;shape=mxgraph.flowchart.annotation_1;align=left;pointerEvents=1;" parent="1" vertex="1">
          <mxGeometry x="680" y="90" width="20" height="40" as="geometry" />
        </mxCell>
        <mxCell id="jubV7-twtPXMku64c-Cl-35" value="Yes" style="edgeStyle=orthogonalEdgeStyle;rounded=0;orthogonalLoop=1;jettySize=auto;html=1;exitX=0.5;exitY=1;exitDx=0;exitDy=0;exitPerimeter=0;entryX=0.5;entryY=0;entryDx=0;entryDy=0;strokeWidth=2;fontSize=12;" parent="1" source="jubV7-twtPXMku64c-Cl-12" target="jubV7-twtPXMku64c-Cl-16" edge="1">
          <mxGeometry x="-0.8" relative="1" as="geometry">
            <mxPoint as="offset" />
          </mxGeometry>
        </mxCell>
        <mxCell id="jubV7-twtPXMku64c-Cl-36" value="No" style="edgeStyle=orthogonalEdgeStyle;rounded=0;orthogonalLoop=1;jettySize=auto;html=1;exitX=1;exitY=0.5;exitDx=0;exitDy=0;exitPerimeter=0;entryX=0.5;entryY=0;entryDx=0;entryDy=0;entryPerimeter=0;strokeWidth=2;fontSize=12;" parent="1" source="jubV7-twtPXMku64c-Cl-12" target="jubV7-twtPXMku64c-Cl-6" edge="1">
          <mxGeometry x="-0.92" relative="1" as="geometry">
            <mxPoint as="offset" />
          </mxGeometry>
        </mxCell>
        <mxCell id="jubV7-twtPXMku64c-Cl-12" value="Source data received for NSSD?" style="strokeWidth=2;html=1;shape=mxgraph.flowchart.decision;whiteSpace=wrap;fillColor=#f8cecc;strokeColor=#b85450;" parent="1" vertex="1">
          <mxGeometry x="920" y="140" width="100" height="100" as="geometry" />
        </mxCell>
        <mxCell id="jubV7-twtPXMku64c-Cl-13" value="Next Monthly update" style="strokeWidth=2;html=1;shape=mxgraph.flowchart.annotation_1;align=left;pointerEvents=1;" parent="1" vertex="1">
          <mxGeometry x="920" y="100" width="20" height="30" as="geometry" />
        </mxCell>
        <mxCell id="jubV7-twtPXMku64c-Cl-37" style="edgeStyle=orthogonalEdgeStyle;rounded=0;orthogonalLoop=1;jettySize=auto;html=1;exitX=0.5;exitY=1;exitDx=0;exitDy=0;entryX=0;entryY=0.5;entryDx=0;entryDy=0;entryPerimeter=0;strokeWidth=2;fontSize=12;" parent="1" source="jubV7-twtPXMku64c-Cl-16" target="jubV7-twtPXMku64c-Cl-6" edge="1">
          <mxGeometry relative="1" as="geometry" />
        </mxCell>
        <mxCell id="jubV7-twtPXMku64c-Cl-16" value="Replace the derived NSSD" style="rounded=1;whiteSpace=wrap;html=1;absoluteArcSize=1;arcSize=14;strokeWidth=2;fillColor=#d5e8d4;strokeColor=#82b366;" parent="1" vertex="1">
          <mxGeometry x="920" y="340" width="100" height="100" as="geometry" />
        </mxCell>
        <mxCell id="jubV7-twtPXMku64c-Cl-29" value="Yes" style="edgeStyle=orthogonalEdgeStyle;rounded=0;orthogonalLoop=1;jettySize=auto;html=1;exitX=0.5;exitY=1;exitDx=0;exitDy=0;exitPerimeter=0;entryX=0.5;entryY=0;entryDx=0;entryDy=0;strokeWidth=2;fontSize=12;" parent="1" source="jubV7-twtPXMku64c-Cl-17" target="jubV7-twtPXMku64c-Cl-19" edge="1">
          <mxGeometry x="-0.6667" relative="1" as="geometry">
            <Array as="points">
              <mxPoint x="180" y="570" />
              <mxPoint x="180" y="570" />
            </Array>
            <mxPoint as="offset" />
          </mxGeometry>
        </mxCell>
        <mxCell id="jubV7-twtPXMku64c-Cl-40" value="No" style="edgeStyle=orthogonalEdgeStyle;rounded=0;orthogonalLoop=1;jettySize=auto;html=1;exitX=1;exitY=0.5;exitDx=0;exitDy=0;exitPerimeter=0;strokeWidth=2;fontSize=12;" parent="1" source="jubV7-twtPXMku64c-Cl-17" edge="1">
          <mxGeometry x="-0.8667" relative="1" as="geometry">
            <mxPoint x="360" y="680" as="targetPoint" />
            <mxPoint as="offset" />
          </mxGeometry>
        </mxCell>
        <mxCell id="jubV7-twtPXMku64c-Cl-17" value="Has the date passed?" style="strokeWidth=2;html=1;shape=mxgraph.flowchart.decision;whiteSpace=wrap;fillColor=#f8cecc;strokeColor=#b85450;" parent="1" vertex="1">
          <mxGeometry x="130" y="460" width="100" height="100" as="geometry" />
        </mxCell>
        <mxCell id="jubV7-twtPXMku64c-Cl-39" style="edgeStyle=orthogonalEdgeStyle;rounded=0;orthogonalLoop=1;jettySize=auto;html=1;exitX=1;exitY=0.5;exitDx=0;exitDy=0;strokeWidth=2;fontSize=12;" parent="1" source="jubV7-twtPXMku64c-Cl-19" edge="1">
          <mxGeometry relative="1" as="geometry">
            <mxPoint x="990" y="680" as="targetPoint" />
            <Array as="points">
              <mxPoint x="230" y="680" />
            </Array>
          </mxGeometry>
        </mxCell>
        <mxCell id="jubV7-twtPXMku64c-Cl-19" value="Remove after 3 months" style="rounded=1;whiteSpace=wrap;html=1;absoluteArcSize=1;arcSize=14;strokeWidth=2;fillColor=#d5e8d4;strokeColor=#82b366;" parent="1" vertex="1">
          <mxGeometry x="130" y="620" width="100" height="100" as="geometry" />
        </mxCell>
        <mxCell id="jubV7-twtPXMku64c-Cl-26" value="No" style="edgeStyle=orthogonalEdgeStyle;rounded=0;orthogonalLoop=1;jettySize=auto;html=1;exitX=1;exitY=0.5;exitDx=0;exitDy=0;exitPerimeter=0;strokeWidth=2;fontSize=12;" parent="1" source="jubV7-twtPXMku64c-Cl-22" target="jubV7-twtPXMku64c-Cl-23" edge="1">
          <mxGeometry x="-0.6667" relative="1" as="geometry">
            <mxPoint as="offset" />
          </mxGeometry>
        </mxCell>
        <mxCell id="jubV7-twtPXMku64c-Cl-27" value="Yes" style="edgeStyle=orthogonalEdgeStyle;rounded=0;orthogonalLoop=1;jettySize=auto;html=1;strokeWidth=2;fontSize=12;" parent="1" target="jubV7-twtPXMku64c-Cl-17" edge="1">
          <mxGeometry x="-0.3158" relative="1" as="geometry">
            <mxPoint x="180" y="400" as="sourcePoint" />
            <Array as="points">
              <mxPoint x="180" y="392" />
              <mxPoint x="180" y="392" />
            </Array>
            <mxPoint as="offset" />
          </mxGeometry>
        </mxCell>
        <mxCell id="jubV7-twtPXMku64c-Cl-22" value="Is the vessel in class?" style="strokeWidth=2;html=1;shape=mxgraph.flowchart.decision;whiteSpace=wrap;fontSize=12;fillColor=#f8cecc;strokeColor=#b85450;" parent="1" vertex="1">
          <mxGeometry x="130" y="292" width="100" height="100" as="geometry" />
        </mxCell>
        <mxCell id="jubV7-twtPXMku64c-Cl-41" style="edgeStyle=orthogonalEdgeStyle;rounded=0;orthogonalLoop=1;jettySize=auto;html=1;exitX=0.5;exitY=1;exitDx=0;exitDy=0;strokeWidth=2;fontSize=12;" parent="1" source="jubV7-twtPXMku64c-Cl-23" edge="1">
          <mxGeometry relative="1" as="geometry">
            <mxPoint x="480" y="680" as="targetPoint" />
            <Array as="points">
              <mxPoint x="360" y="680" />
            </Array>
          </mxGeometry>
        </mxCell>
        <mxCell id="jubV7-twtPXMku64c-Cl-23" value="Remove NSSD" style="rounded=1;whiteSpace=wrap;html=1;absoluteArcSize=1;arcSize=14;strokeWidth=2;fontSize=12;fillColor=#d5e8d4;strokeColor=#82b366;" parent="1" vertex="1">
          <mxGeometry x="310" y="292" width="100" height="100" as="geometry" />
        </mxCell>
        <mxCell id="qjIh94O3UAw2UJEuniRW-1" value="This is a survey flowchart" style="text;html=1;strokeColor=none;fillColor=none;align=center;verticalAlign=middle;whiteSpace=wrap;rounded=0;" vertex="1" parent="1">
          <mxGeometry x="880" y="30" width="250" height="20" as="geometry" />
        </mxCell>
      </root>
    </mxGraphModel>
  </diagram>
</mxfile>
